<svg width="500" height="500" viewBox="0 0 500 500" fill="none" xmlns="http://www.w3.org/2000/svg">
  <!-- Background Circle -->
  <circle cx="250" cy="250" r="240" fill="#242424" stroke="#FFD700" stroke-width="2"/>
  
  <!-- Cryptocurrency Icons -->
  <g transform="translate(150, 150)">
    <!-- Bitcoin Symbol -->
    <path d="M100 0C44.772 0 0 44.772 0 100s44.772 100 100 100 100-44.772 100-100S155.228 0 100 0zm0 180c-44.183 0-80-35.817-80-80s35.817-80 80-80 80 35.817 80 80-35.817 80-80 80z" fill="#FFD700"/>
    <path d="M135 70c2.761 0 5-2.239 5-5s-2.239-5-5-5h-20V45c0-2.761-2.239-5-5-5s-5 2.239-5 5v15H85V45c0-2.761-2.239-5-5-5s-5 2.239-5 5v15H55c-2.761 0-5 2.239-5 5s2.239 5 5 5h10v60H55c-2.761 0-5 2.239-5 5s2.239 5 5 5h20v15c0 2.761 2.239 5 5 5s5-2.239 5-5v-15h20v15c0 2.761 2.239 5 5 5s5-2.239 5-5v-15h20c2.761 0 5-2.239 5-5s-2.239-5-5-5h-10V70h10zm-30 60H75V70h30v60z" fill="#FFD700"/>
  </g>
  
  <!-- Exchange Arrows -->
  <g transform="translate(200, 200)">
    <path d="M50 0L90 30L50 60V40H0V20H50V0Z" fill="#FFD700"/>
    <path d="M0 90L40 60V80H90V100H40V120L0 90Z" fill="#FFD700"/>
  </g>
  
  <!-- Decorative Elements -->
  <circle cx="150" cy="150" r="10" fill="#FFD700"/>
  <circle cx="350" cy="350" r="10" fill="#FFD700"/>
  <circle cx="350" cy="150" r="10" fill="#FFD700"/>
  <circle cx="150" cy="350" r="10" fill="#FFD700"/>
  
  <!-- Connection Lines -->
  <line x1="160" y1="160" x2="340" y2="340" stroke="#FFD700" stroke-width="2" stroke-dasharray="5,5"/>
  <line x1="160" y1="340" x2="340" y2="160" stroke="#FFD700" stroke-width="2" stroke-dasharray="5,5"/>
</svg>